{
	"asset":{
		"copyright":"joydesign3d.link",
		"generator":"Khronos glTF Blender I/O v3.6.27",
		"version":"2.0"
	},
	"extensionsUsed":[
		"KHR_materials_specular",
		"KHR_materials_ior"
	],
	"scene":0,
	"scenes":[
		{
			"name":"Scene",
			"nodes":[
				0
			]
		}
	],
	"nodes":[
		{
			"mesh":0,
			"name":"handbags"
		}
	],
	"materials":[
		{
			"doubleSided":true,
			"extensions":{
				"KHR_materials_specular":{
					"specularColorFactor":[
						0,
						0,
						0
					]
				},
				"KHR_materials_ior":{
					"ior":1.4500000476837158
				}
			},
			"name":"handbags_material",
			"normalTexture":{
				"index":0
			},
			"pbrMetallicRoughness":{
				"baseColorTexture":{
					"index":1
				},
				"metallicRoughnessTexture":{
					"index":2
				}
			}
		}
	],
	"meshes":[
		{
			"name":"Mesh",
			"primitives":[
				{
					"attributes":{
						"POSITION":0,
						"NORMAL":1,
						"TEXCOORD_0":2
					},
					"indices":3,
					"material":0
				}
			]
		}
	],
	"textures":[
		{
			"sampler":0,
			"source":0
		},
		{
			"sampler":0,
			"source":1
		},
		{
			"sampler":0,
			"source":2
		}
	],
	"images":[
		{
			"mimeType":"image/jpeg",
			"name":"normal.jpg",
			"uri":"textures/normal.jpg"
		},
		{
			"mimeType":"image/jpeg",
			"name":"diffuse_blue.jpg",
			"uri":"textures/diffuse_blue.jpg"
		},
		{
			"mimeType":"image/jpeg",
			"name":"roughness.jpg",
			"uri":"textures/roughness.jpg"
		}
	],
	"accessors":[
		{
			"bufferView":0,
			"componentType":5126,
			"count":30357,
			"max":[
				0.15945972502231598,
				0.34440675377845764,
				0.05983421206474304
			],
			"min":[
				-0.15945973992347717,
				-1.889097438834142e-05,
				-0.054995086044073105
			],
			"type":"VEC3"
		},
		{
			"bufferView":1,
			"componentType":5126,
			"count":30357,
			"type":"VEC3"
		},
		{
			"bufferView":2,
			"componentType":5126,
			"count":30357,
			"type":"VEC2"
		},
		{
			"bufferView":3,
			"componentType":5123,
			"count":136152,
			"type":"SCALAR"
		}
	],
	"bufferViews":[
		{
			"buffer":0,
			"byteLength":364284,
			"byteOffset":0,
			"target":34962
		},
		{
			"buffer":0,
			"byteLength":364284,
			"byteOffset":364284,
			"target":34962
		},
		{
			"buffer":0,
			"byteLength":242856,
			"byteOffset":728568,
			"target":34962
		},
		{
			"buffer":0,
			"byteLength":272304,
			"byteOffset":971424,
			"target":34963
		}
	],
	"samplers":[
		{
			"magFilter":9729,
			"minFilter":9987
		}
	],
	"buffers":[
		{
			"byteLength":1243728,
			"uri":"handbags.bin"
		}
	]
}
