{
	"asset":{
		"copyright":"joydesign3d.link",
		"generator":"Khronos glTF Blender I/O v3.6.27",
		"version":"2.0"
	},
	"extensionsUsed":[
		"KHR_materials_specular",
		"KHR_materials_ior",
		"KHR_texture_transform"
	],
	"extensionsRequired":[
		"KHR_texture_transform"
	],
	"scene":0,
	"scenes":[
		{
			"name":"Scene",
			"nodes":[
				0,
				1
			]
		}
	],
	"nodes":[
		{
			"mesh":0,
			"name":"Shoes_L"
		},
		{
			"mesh":1,
			"name":"Shoes_R"
		}
	],
	"materials":[
		{
			"doubleSided":true,
			"extensions":{
				"KHR_materials_specular":{
					"specularColorFactor":[
						0.948543059910952,
						0.948543059910952,
						0.948543059910952
					]
				},
				"KHR_materials_ior":{
					"ior":1.4500000476837158
				}
			},
			"name":"Shoes_material_red",
			"normalTexture":{
				"extensions":{
					"KHR_texture_transform":{
						"offset":[
							0,
							-9
						],
						"scale":[
							10,
							10
						]
					}
				},
				"index":0
			},
			"pbrMetallicRoughness":{
				"baseColorTexture":{
					"index":1
				},
				"metallicFactor":0,
				"metallicRoughnessTexture":{
					"extensions":{
						"KHR_texture_transform":{
							"offset":[
								0,
								-9
							],
							"scale":[
								10,
								10
							]
						}
					},
					"index":2
				}
			}
		},
		{
			"doubleSided":true,
			"extensions":{
				"KHR_materials_specular":{
					"specularColorFactor":[
						0.948543059910952,
						0.948543059910952,
						0.948543059910952
					]
				},
				"KHR_materials_ior":{
					"ior":1.4500000476837158
				}
			},
			"name":"Shoes_material_blue",
			"normalTexture":{
				"extensions":{
					"KHR_texture_transform":{
						"offset":[
							0,
							-9
						],
						"scale":[
							10,
							10
						]
					}
				},
				"index":3
			},
			"pbrMetallicRoughness":{
				"baseColorTexture":{
					"index":4
				},
				"metallicFactor":0,
				"metallicRoughnessTexture":{
					"extensions":{
						"KHR_texture_transform":{
							"offset":[
								0,
								-9
							],
							"scale":[
								10,
								10
							]
						}
					},
					"index":5
				}
			}
		}
	],
	"meshes":[
		{
			"name":"Mesh",
			"primitives":[
				{
					"attributes":{
						"POSITION":0,
						"NORMAL":1,
						"TEXCOORD_0":2
					},
					"indices":3,
					"material":0
				}
			]
		},
		{
			"name":"Mesh",
			"primitives":[
				{
					"attributes":{
						"POSITION":4,
						"NORMAL":5,
						"TEXCOORD_0":6
					},
					"indices":3,
					"material":1
				}
			]
		}
	],
	"textures":[
		{
			"sampler":0,
			"source":0
		},
		{
			"sampler":0,
			"source":1
		},
		{
			"sampler":0,
			"source":2
		},
		{
			"sampler":0,
			"source":0
		},
		{
			"sampler":0,
			"source":3
		},
		{
			"sampler":0,
			"source":2
		}
	],
	"images":[
		{
			"mimeType":"image/jpeg",
			"name":"normal.jpg",
			"uri":"textures/normal.jpg"
		},
		{
			"mimeType":"image/jpeg",
			"name":"diffuse_red.jpg",
			"uri":"textures/diffuse_red.jpg"
		},
		{
			"mimeType":"image/jpeg",
			"name":"roughness.jpg",
			"uri":"textures/roughness.jpg"
		},
		{
			"mimeType":"image/jpeg",
			"name":"diffuse_blue.jpg",
			"uri":"textures/diffuse_blue.jpg"
		}
	],
	"accessors":[
		{
			"bufferView":0,
			"componentType":5126,
			"count":64791,
			"max":[
				0.17536242306232452,
				0.18460571765899658,
				0.14006410539150238
			],
			"min":[
				-0.01123330369591713,
				-6.708818223177815e-11,
				-0.11212412267923355
			],
			"type":"VEC3"
		},
		{
			"bufferView":1,
			"componentType":5126,
			"count":64791,
			"type":"VEC3"
		},
		{
			"bufferView":2,
			"componentType":5126,
			"count":64791,
			"type":"VEC2"
		},
		{
			"bufferView":3,
			"componentType":5123,
			"count":249648,
			"type":"SCALAR"
		},
		{
			"bufferView":4,
			"componentType":5126,
			"count":64791,
			"max":[
				-0.009448479861021042,
				0.184605672955513,
				0.19089093804359436
			],
			"min":[
				-0.1052338257431984,
				-6.708888306006244e-11,
				-0.10253828018903732
			],
			"type":"VEC3"
		},
		{
			"bufferView":5,
			"componentType":5126,
			"count":64791,
			"type":"VEC3"
		},
		{
			"bufferView":6,
			"componentType":5126,
			"count":64791,
			"type":"VEC2"
		}
	],
	"bufferViews":[
		{
			"buffer":0,
			"byteLength":777492,
			"byteOffset":0,
			"target":34962
		},
		{
			"buffer":0,
			"byteLength":777492,
			"byteOffset":777492,
			"target":34962
		},
		{
			"buffer":0,
			"byteLength":518328,
			"byteOffset":1554984,
			"target":34962
		},
		{
			"buffer":0,
			"byteLength":499296,
			"byteOffset":2073312,
			"target":34963
		},
		{
			"buffer":0,
			"byteLength":777492,
			"byteOffset":2572608,
			"target":34962
		},
		{
			"buffer":0,
			"byteLength":777492,
			"byteOffset":3350100,
			"target":34962
		},
		{
			"buffer":0,
			"byteLength":518328,
			"byteOffset":4127592,
			"target":34962
		}
	],
	"samplers":[
		{
			"magFilter":9729,
			"minFilter":9987
		}
	],
	"buffers":[
		{
			"byteLength":4645920,
			"uri":"shoes.bin"
		}
	]
}
