{
	"asset":{
		"generator":"Khronos glTF Blender I/O v3.6.27",
		"version":"2.0"
	},
	"extensionsUsed":[
		"KHR_materials_specular",
		"KHR_materials_ior"
	],
	"scene":0,
	"scenes":[
		{
			"name":"Scene",
			"nodes":[
				0,
				1,
				2,
				3,
				4
			]
		}
	],
	"nodes":[
		{
			"mesh":0,
			"name":"m"
		},
		{
			"mesh":1,
			"name":"R",
			"translation":[
				0,
				0.10263748466968536,
				-0.010987336747348309
			]
		},
		{
			"mesh":2,
			"name":"r",
			"translation":[
				0,
				0.09463736414909363,
				-0.010987330228090286
			]
		},
		{
			"mesh":3,
			"name":"l",
			"translation":[
				0,
				0.09463736414909363,
				-0.010987330228090286
			]
		},
		{
			"mesh":4,
			"name":"L",
			"translation":[
				0,
				0.10263748466968536,
				-0.010987336747348309
			]
		}
	],
	"animations":[
		{
			"channels":[
				{
					"sampler":0,
					"target":{
						"node":2,
						"path":"rotation"
					}
				}
			],
			"name":"rAction",
			"samplers":[
				{
					"input":40,
					"interpolation":"LINEAR",
					"output":41
				}
			]
		},
		{
			"channels":[
				{
					"sampler":0,
					"target":{
						"node":3,
						"path":"rotation"
					}
				}
			],
			"name":"lAction",
			"samplers":[
				{
					"input":40,
					"interpolation":"LINEAR",
					"output":42
				}
			]
		}
	],
	"materials":[
		{
			"doubleSided":true,
			"extensions":{
				"KHR_materials_specular":{
					"specularColorFactor":[
						2.371357614441398,
						2.371357614441398,
						2.371357614441398
					]
				},
				"KHR_materials_ior":{
					"ior":1.4500000476837158
				}
			},
			"name":"Hoverboard",
			"pbrMetallicRoughness":{
				"metallicFactor":0,
				"roughnessFactor":0.5527864098548889
			}
		},
		{
			"doubleSided":true,
			"extensions":{
				"KHR_materials_specular":{
					"specularColorFactor":[
						2.371357614441398,
						2.371357614441398,
						2.371357614441398
					]
				},
				"KHR_materials_ior":{
					"ior":1.4500000476837158
				}
			},
			"name":"Material #2",
			"pbrMetallicRoughness":{
				"baseColorFactor":[
					0.007843137718737125,
					0.007843137718737125,
					0.007843137718737125,
					1
				],
				"metallicFactor":0,
				"roughnessFactor":0.5527864098548889
			}
		},
		{
			"doubleSided":true,
			"extensions":{
				"KHR_materials_specular":{
					"specularColorFactor":[
						1.444372401138215,
						1.444372401138215,
						1.444372401138215
					]
				},
				"KHR_materials_ior":{
					"ior":1.4500000476837158
				}
			},
			"name":"Material #3",
			"pbrMetallicRoughness":{
				"baseColorFactor":[
					0.9786828756332397,
					0.9915177226066589,
					1,
					1
				],
				"metallicFactor":0.7318180799484253,
				"roughnessFactor":0.09090918302536011
			}
		}
	],
	"meshes":[
		{
			"name":"m",
			"primitives":[
				{
					"attributes":{
						"POSITION":0,
						"NORMAL":1,
						"TEXCOORD_0":2
					},
					"indices":3,
					"material":0
				}
			]
		},
		{
			"name":"R",
			"primitives":[
				{
					"attributes":{
						"COLOR_0":4,
						"POSITION":5,
						"NORMAL":6,
						"TEXCOORD_0":7
					},
					"indices":8,
					"material":0
				},
				{
					"attributes":{
						"COLOR_0":9,
						"POSITION":10,
						"NORMAL":11,
						"TEXCOORD_0":12
					},
					"indices":13,
					"material":1
				}
			]
		},
		{
			"name":"r",
			"primitives":[
				{
					"attributes":{
						"POSITION":14,
						"NORMAL":15,
						"TEXCOORD_0":16
					},
					"indices":17,
					"material":1
				},
				{
					"attributes":{
						"POSITION":18,
						"NORMAL":19,
						"TEXCOORD_0":20
					},
					"indices":21,
					"material":2
				}
			]
		},
		{
			"name":"l",
			"primitives":[
				{
					"attributes":{
						"POSITION":22,
						"NORMAL":23,
						"TEXCOORD_0":24
					},
					"indices":25,
					"material":1
				},
				{
					"attributes":{
						"POSITION":26,
						"NORMAL":27,
						"TEXCOORD_0":28
					},
					"indices":29,
					"material":2
				}
			]
		},
		{
			"name":"L",
			"primitives":[
				{
					"attributes":{
						"COLOR_0":30,
						"POSITION":31,
						"NORMAL":32,
						"TEXCOORD_0":33
					},
					"indices":34,
					"material":0
				},
				{
					"attributes":{
						"COLOR_0":35,
						"POSITION":36,
						"NORMAL":37,
						"TEXCOORD_0":38
					},
					"indices":39,
					"material":1
				}
			]
		}
	],
	"accessors":[
		{
			"bufferView":0,
			"componentType":5126,
			"count":386,
			"max":[
				0.025019530206918716,
				0.12263734638690948,
				0.009012670256197453
			],
			"min":[
				-0.025019530206918716,
				0.08263735473155975,
				-0.03098732978105545
			],
			"type":"VEC3"
		},
		{
			"bufferView":1,
			"componentType":5126,
			"count":386,
			"type":"VEC3"
		},
		{
			"bufferView":2,
			"componentType":5126,
			"count":386,
			"type":"VEC2"
		},
		{
			"bufferView":3,
			"componentType":5123,
			"count":2304,
			"type":"SCALAR"
		},
		{
			"bufferView":4,
			"componentType":5123,
			"count":1419,
			"normalized":true,
			"type":"VEC4"
		},
		{
			"bufferView":5,
			"componentType":5126,
			"count":1419,
			"max":[
				0.39311909675598145,
				0.09281547367572784,
				0.10727078467607498
			],
			"min":[
				0.009232848882675171,
				-0.07377976924180984,
				-0.10453253239393234
			],
			"type":"VEC3"
		},
		{
			"bufferView":6,
			"componentType":5126,
			"count":1419,
			"type":"VEC3"
		},
		{
			"bufferView":7,
			"componentType":5126,
			"count":1419,
			"type":"VEC2"
		},
		{
			"bufferView":8,
			"componentType":5123,
			"count":7968,
			"type":"SCALAR"
		},
		{
			"bufferView":9,
			"componentType":5123,
			"count":1209,
			"normalized":true,
			"type":"VEC4"
		},
		{
			"bufferView":10,
			"componentType":5126,
			"count":1209,
			"max":[
				0.28317004442214966,
				0.03145502507686615,
				0.09795498847961426
			],
			"min":[
				0.10916264355182648,
				-0.01832123100757599,
				-0.07201262563467026
			],
			"type":"VEC3"
		},
		{
			"bufferView":11,
			"componentType":5126,
			"count":1209,
			"type":"VEC3"
		},
		{
			"bufferView":12,
			"componentType":5126,
			"count":1209,
			"type":"VEC2"
		},
		{
			"bufferView":13,
			"componentType":5123,
			"count":6354,
			"type":"SCALAR"
		},
		{
			"bufferView":14,
			"componentType":5126,
			"count":1126,
			"max":[
				0.3850182592868805,
				0.095188207924366,
				0.09558038413524628
			],
			"min":[
				0.30176228284835815,
				-0.09513548016548157,
				-0.09474331140518188
			],
			"type":"VEC3"
		},
		{
			"bufferView":15,
			"componentType":5126,
			"count":1126,
			"type":"VEC3"
		},
		{
			"bufferView":16,
			"componentType":5126,
			"count":1126,
			"type":"VEC2"
		},
		{
			"bufferView":17,
			"componentType":5123,
			"count":6084,
			"type":"SCALAR"
		},
		{
			"bufferView":18,
			"componentType":5126,
			"count":623,
			"max":[
				0.3773030936717987,
				0.04971545562148094,
				0.04952457547187805
			],
			"min":[
				0.3639138340950012,
				-0.04937465488910675,
				-0.049524564296007156
			],
			"type":"VEC3"
		},
		{
			"bufferView":19,
			"componentType":5126,
			"count":623,
			"type":"VEC3"
		},
		{
			"bufferView":20,
			"componentType":5126,
			"count":623,
			"type":"VEC2"
		},
		{
			"bufferView":21,
			"componentType":5123,
			"count":3636,
			"type":"SCALAR"
		},
		{
			"bufferView":22,
			"componentType":5126,
			"count":1126,
			"max":[
				-0.30176228284835815,
				0.0951882153749466,
				0.09558039158582687
			],
			"min":[
				-0.3850182592868805,
				-0.09513548761606216,
				-0.09474331140518188
			],
			"type":"VEC3"
		},
		{
			"bufferView":23,
			"componentType":5126,
			"count":1126,
			"type":"VEC3"
		},
		{
			"bufferView":24,
			"componentType":5126,
			"count":1126,
			"type":"VEC2"
		},
		{
			"bufferView":25,
			"componentType":5123,
			"count":6084,
			"type":"SCALAR"
		},
		{
			"bufferView":26,
			"componentType":5126,
			"count":623,
			"max":[
				-0.3639138340950012,
				0.04971546307206154,
				0.04952458292245865
			],
			"min":[
				-0.3773030936717987,
				-0.04937465488910675,
				-0.049524564296007156
			],
			"type":"VEC3"
		},
		{
			"bufferView":27,
			"componentType":5126,
			"count":623,
			"type":"VEC3"
		},
		{
			"bufferView":28,
			"componentType":5126,
			"count":623,
			"type":"VEC2"
		},
		{
			"bufferView":29,
			"componentType":5123,
			"count":3636,
			"type":"SCALAR"
		},
		{
			"bufferView":30,
			"componentType":5123,
			"count":1419,
			"normalized":true,
			"type":"VEC4"
		},
		{
			"bufferView":31,
			"componentType":5126,
			"count":1419,
			"max":[
				-0.009232848882675171,
				0.09281547367572784,
				0.10727078467607498
			],
			"min":[
				-0.39311909675598145,
				-0.07377976924180984,
				-0.10453253239393234
			],
			"type":"VEC3"
		},
		{
			"bufferView":32,
			"componentType":5126,
			"count":1419,
			"type":"VEC3"
		},
		{
			"bufferView":33,
			"componentType":5126,
			"count":1419,
			"type":"VEC2"
		},
		{
			"bufferView":34,
			"componentType":5123,
			"count":7968,
			"type":"SCALAR"
		},
		{
			"bufferView":35,
			"componentType":5123,
			"count":1209,
			"normalized":true,
			"type":"VEC4"
		},
		{
			"bufferView":36,
			"componentType":5126,
			"count":1209,
			"max":[
				-0.10916264355182648,
				0.03145502507686615,
				0.09795498847961426
			],
			"min":[
				-0.28317004442214966,
				-0.01832123100757599,
				-0.07201262563467026
			],
			"type":"VEC3"
		},
		{
			"bufferView":37,
			"componentType":5126,
			"count":1209,
			"type":"VEC3"
		},
		{
			"bufferView":38,
			"componentType":5126,
			"count":1209,
			"type":"VEC2"
		},
		{
			"bufferView":39,
			"componentType":5123,
			"count":6354,
			"type":"SCALAR"
		},
		{
			"bufferView":40,
			"componentType":5126,
			"count":30,
			"max":[
				1
			],
			"min":[
				0.03333333333333333
			],
			"type":"SCALAR"
		},
		{
			"bufferView":41,
			"componentType":5126,
			"count":30,
			"type":"VEC4"
		},
		{
			"bufferView":42,
			"componentType":5126,
			"count":30,
			"type":"VEC4"
		}
	],
	"bufferViews":[
		{
			"buffer":0,
			"byteLength":4632,
			"byteOffset":0,
			"target":34962
		},
		{
			"buffer":0,
			"byteLength":4632,
			"byteOffset":4632,
			"target":34962
		},
		{
			"buffer":0,
			"byteLength":3088,
			"byteOffset":9264,
			"target":34962
		},
		{
			"buffer":0,
			"byteLength":4608,
			"byteOffset":12352,
			"target":34963
		},
		{
			"buffer":0,
			"byteLength":11352,
			"byteOffset":16960,
			"target":34962
		},
		{
			"buffer":0,
			"byteLength":17028,
			"byteOffset":28312,
			"target":34962
		},
		{
			"buffer":0,
			"byteLength":17028,
			"byteOffset":45340,
			"target":34962
		},
		{
			"buffer":0,
			"byteLength":11352,
			"byteOffset":62368,
			"target":34962
		},
		{
			"buffer":0,
			"byteLength":15936,
			"byteOffset":73720,
			"target":34963
		},
		{
			"buffer":0,
			"byteLength":9672,
			"byteOffset":89656,
			"target":34962
		},
		{
			"buffer":0,
			"byteLength":14508,
			"byteOffset":99328,
			"target":34962
		},
		{
			"buffer":0,
			"byteLength":14508,
			"byteOffset":113836,
			"target":34962
		},
		{
			"buffer":0,
			"byteLength":9672,
			"byteOffset":128344,
			"target":34962
		},
		{
			"buffer":0,
			"byteLength":12708,
			"byteOffset":138016,
			"target":34963
		},
		{
			"buffer":0,
			"byteLength":13512,
			"byteOffset":150724,
			"target":34962
		},
		{
			"buffer":0,
			"byteLength":13512,
			"byteOffset":164236,
			"target":34962
		},
		{
			"buffer":0,
			"byteLength":9008,
			"byteOffset":177748,
			"target":34962
		},
		{
			"buffer":0,
			"byteLength":12168,
			"byteOffset":186756,
			"target":34963
		},
		{
			"buffer":0,
			"byteLength":7476,
			"byteOffset":198924,
			"target":34962
		},
		{
			"buffer":0,
			"byteLength":7476,
			"byteOffset":206400,
			"target":34962
		},
		{
			"buffer":0,
			"byteLength":4984,
			"byteOffset":213876,
			"target":34962
		},
		{
			"buffer":0,
			"byteLength":7272,
			"byteOffset":218860,
			"target":34963
		},
		{
			"buffer":0,
			"byteLength":13512,
			"byteOffset":226132,
			"target":34962
		},
		{
			"buffer":0,
			"byteLength":13512,
			"byteOffset":239644,
			"target":34962
		},
		{
			"buffer":0,
			"byteLength":9008,
			"byteOffset":253156,
			"target":34962
		},
		{
			"buffer":0,
			"byteLength":12168,
			"byteOffset":262164,
			"target":34963
		},
		{
			"buffer":0,
			"byteLength":7476,
			"byteOffset":274332,
			"target":34962
		},
		{
			"buffer":0,
			"byteLength":7476,
			"byteOffset":281808,
			"target":34962
		},
		{
			"buffer":0,
			"byteLength":4984,
			"byteOffset":289284,
			"target":34962
		},
		{
			"buffer":0,
			"byteLength":7272,
			"byteOffset":294268,
			"target":34963
		},
		{
			"buffer":0,
			"byteLength":11352,
			"byteOffset":301540,
			"target":34962
		},
		{
			"buffer":0,
			"byteLength":17028,
			"byteOffset":312892,
			"target":34962
		},
		{
			"buffer":0,
			"byteLength":17028,
			"byteOffset":329920,
			"target":34962
		},
		{
			"buffer":0,
			"byteLength":11352,
			"byteOffset":346948,
			"target":34962
		},
		{
			"buffer":0,
			"byteLength":15936,
			"byteOffset":358300,
			"target":34963
		},
		{
			"buffer":0,
			"byteLength":9672,
			"byteOffset":374236,
			"target":34962
		},
		{
			"buffer":0,
			"byteLength":14508,
			"byteOffset":383908,
			"target":34962
		},
		{
			"buffer":0,
			"byteLength":14508,
			"byteOffset":398416,
			"target":34962
		},
		{
			"buffer":0,
			"byteLength":9672,
			"byteOffset":412924,
			"target":34962
		},
		{
			"buffer":0,
			"byteLength":12708,
			"byteOffset":422596,
			"target":34963
		},
		{
			"buffer":0,
			"byteLength":120,
			"byteOffset":435304
		},
		{
			"buffer":0,
			"byteLength":480,
			"byteOffset":435424
		},
		{
			"buffer":0,
			"byteLength":480,
			"byteOffset":435904
		}
	],
	"buffers":[
		{
			"byteLength":436384,
			"uri":"hoverboard.bin"
		}
	]
}
