{
	"asset":{
		"copyright":"joydesign3d.link",
		"generator":"Khronos glTF Blender I/O v3.6.27",
		"version":"2.0"
	},
	"extensionsUsed":[
		"KHR_materials_specular",
		"KHR_materials_ior"
	],
	"scene":0,
	"scenes":[
		{
			"name":"Scene",
			"nodes":[
				0
			]
		}
	],
	"nodes":[
		{
			"mesh":0,
			"name":"Ring"
		}
	],
	"materials":[
		{
			"doubleSided":true,
			"extensions":{
				"KHR_materials_specular":{
					"specularColorFactor":[
						0.948543059910952,
						0.948543059910952,
						0.948543059910952
					]
				},
				"KHR_materials_ior":{
					"ior":1.4500000476837158
				}
			},
			"name":"Ring_material",
			"pbrMetallicRoughness":{
				"baseColorFactor":[
					1,
					0.5044552683830261,
					0,
					1
				],
				"roughnessFactor":0.20000000298023224
			}
		}
	],
	"meshes":[
		{
			"name":"Ring",
			"primitives":[
				{
					"attributes":{
						"POSITION":0,
						"NORMAL":1
					},
					"indices":2,
					"material":0
				}
			]
		}
	],
	"accessors":[
		{
			"bufferView":0,
			"componentType":5126,
			"count":289942,
			"max":[
				0.0062415520660579205,
				0.01414254680275917,
				0.006454888265579939
			],
			"min":[
				-0.005989472381770611,
				0,
				-0.005565252620726824
			],
			"type":"VEC3"
		},
		{
			"bufferView":1,
			"componentType":5126,
			"count":289942,
			"type":"VEC3"
		},
		{
			"bufferView":2,
			"componentType":5125,
			"count":1748640,
			"type":"SCALAR"
		}
	],
	"bufferViews":[
		{
			"buffer":0,
			"byteLength":3479304,
			"byteOffset":0,
			"target":34962
		},
		{
			"buffer":0,
			"byteLength":3479304,
			"byteOffset":3479304,
			"target":34962
		},
		{
			"buffer":0,
			"byteLength":6994560,
			"byteOffset":6958608,
			"target":34963
		}
	],
	"buffers":[
		{
			"byteLength":13953168,
			"uri":"Ring.bin"
		}
	]
}
